<svg xmlns="http://www.w3.org/2000/svg" viewBox="0 0 800 540" width="800" height="540" role="img" aria-label="StorySpeak — math hub">
  <rect width="800" height="540" rx="16" fill="#0a0a0f"/>
  <rect x="12" y="56" width="776" height="472" rx="10" fill="#0f172a"/>
  <rect x="12" y="12" width="776" height="32" rx="6" fill="#1a1c26"/>
  <circle cx="28" cy="28" r="5" fill="#ff5f57"/><circle cx="44" cy="28" r="5" fill="#febc2e"/><circle cx="60" cy="28" r="5" fill="#28c840"/>
  <text x="400" y="32" fill="#9ca3af" font-family="ui-mono,monospace" font-size="10" text-anchor="middle">speak.gathermind.app/math/fractions</text>
  <text x="40" y="100" fill="#5eead4" font-family="ui-sans-serif" font-size="11" font-weight="700" letter-spacing="2">MATH · FRACTIONS</text>
  <text x="40" y="135" fill="#fff" font-family="ui-sans-serif" font-size="24" font-weight="700">What is 1/2 + 1/4?</text>
  <g>
    <rect x="40" y="170" width="240" height="60" rx="6" fill="#7c5cff"/>
    <rect x="40" y="170" width="120" height="60" rx="6" fill="#5eead4"/>
    <text x="100" y="208" text-anchor="middle" fill="#0f172a" font-family="ui-sans-serif" font-size="18" font-weight="700">1/2</text>
    <text x="220" y="208" text-anchor="middle" fill="#fff" font-family="ui-sans-serif" font-size="14">+</text>
    <rect x="300" y="170" width="240" height="60" rx="6" fill="#7c5cff"/>
    <rect x="300" y="170" width="60" height="60" rx="6" fill="#ff7a59"/>
    <text x="330" y="208" text-anchor="middle" fill="#0f172a" font-family="ui-sans-serif" font-size="18" font-weight="700">1/4</text>
  </g>
  <text x="40" y="280" fill="#9ca3af" font-family="ui-sans-serif" font-size="13">Pick your answer:</text>
  <g font-family="ui-sans-serif" font-size="18" font-weight="700">
    <rect x="40" y="300" width="170" height="60" rx="12" fill="#1e293b" stroke="#334155"/><text x="125" y="338" text-anchor="middle" fill="#fff">1/6</text>
    <rect x="220" y="300" width="170" height="60" rx="12" fill="#10b981"/><text x="305" y="338" text-anchor="middle" fill="#fff">3/4</text>
    <rect x="400" y="300" width="170" height="60" rx="12" fill="#1e293b" stroke="#334155"/><text x="485" y="338" text-anchor="middle" fill="#fff">2/4</text>
    <rect x="580" y="300" width="170" height="60" rx="12" fill="#1e293b" stroke="#334155"/><text x="665" y="338" text-anchor="middle" fill="#fff">1/8</text>
  </g>
  <rect x="40" y="400" width="720" height="100" rx="14" fill="#1e293b" stroke="#5eead4" stroke-opacity="0.4"/>
  <text x="60" y="428" fill="#5eead4" font-family="ui-sans-serif" font-size="11" font-weight="700">▶ EXPLAINER VIDEO (Remotion)</text>
  <text x="60" y="455" fill="#fff" font-family="ui-sans-serif" font-size="14">Two slices of a 4-piece pie + one more slice = 3 slices out of 4.</text>
  <rect x="60" y="468" width="680" height="6" rx="3" fill="#334155"/>
  <rect x="60" y="468" width="280" height="6" rx="3" fill="#5eead4"/>
  <text x="730" y="490" text-anchor="end" fill="#94a3b8" font-family="ui-mono,monospace" font-size="10">0:18 / 0:42</text>
</svg>
