<svg xmlns="http://www.w3.org/2000/svg" viewBox="0 0 390 780" width="390" height="780" role="img" aria-label="Gather — plan idea screen">
  <defs>
    <linearGradient id="ggrad" x1="0" x2="0" y1="0" y2="1">
      <stop offset="0" stop-color="#7c5cff"/>
      <stop offset="1" stop-color="#5b3fd8"/>
    </linearGradient>
    <linearGradient id="gbg" x1="0" x2="0" y1="0" y2="1">
      <stop offset="0" stop-color="#1a1c26"/>
      <stop offset="1" stop-color="#0f1118"/>
    </linearGradient>
  </defs>
  <rect width="390" height="780" rx="44" fill="url(#gbg)"/>
  <rect x="0" y="0" width="390" height="56" fill="#0a0a0f"/>
  <text x="195" y="35" fill="#fff" font-family="ui-sans-serif" font-size="14" text-anchor="middle" font-weight="600">Gather</text>
  <rect x="20" y="80" width="350" height="120" rx="20" fill="url(#ggrad)"/>
  <text x="40" y="120" fill="#fff" font-family="ui-sans-serif" font-size="11" opacity="0.7">PLAN IDEA</text>
  <text x="40" y="150" fill="#fff" font-family="ui-sans-serif" font-size="22" font-weight="700">Beach day Saturday?</text>
  <text x="40" y="178" fill="#fff" font-family="ui-sans-serif" font-size="12" opacity="0.8">👍 4 interested · 1 pending</text>
  <text x="20" y="240" fill="#9ca3af" font-family="ui-sans-serif" font-size="11" font-weight="600">FRIENDS</text>
  <g font-family="ui-sans-serif" font-size="13" fill="#e7e7ee">
    <rect x="20" y="252" width="350" height="56" rx="14" fill="#1a1c26"/>
    <circle cx="46" cy="280" r="14" fill="#5eead4"/>
    <text x="74" y="278">Sarah</text><text x="74" y="296" opacity="0.6" font-size="11">👍 Interested</text>
    <rect x="20" y="316" width="350" height="56" rx="14" fill="#1a1c26"/>
    <circle cx="46" cy="344" r="14" fill="#ff7a59"/>
    <text x="74" y="342">Marcus</text><text x="74" y="360" opacity="0.6" font-size="11">👍 Interested</text>
    <rect x="20" y="380" width="350" height="56" rx="14" fill="#1a1c26"/>
    <circle cx="46" cy="408" r="14" fill="#7c5cff"/>
    <text x="74" y="406">Priya</text><text x="74" y="424" opacity="0.6" font-size="11">⏳ Pending</text>
  </g>
  <rect x="20" y="470" width="350" height="80" rx="14" fill="#1a1c26" stroke="#7c5cff" stroke-opacity="0.4"/>
  <text x="40" y="495" fill="#7c5cff" font-family="ui-sans-serif" font-size="11" font-weight="600">✨ AI SUGGESTION</text>
  <text x="40" y="520" fill="#e7e7ee" font-family="ui-sans-serif" font-size="13">Saturday 11am at Ocean Beach —</text>
  <text x="40" y="538" fill="#e7e7ee" font-family="ui-sans-serif" font-size="13">tide&apos;s low and weather&apos;s clear.</text>
  <rect x="20" y="700" width="350" height="56" rx="28" fill="#7c5cff"/>
  <text x="195" y="734" text-anchor="middle" fill="#fff" font-family="ui-sans-serif" font-size="15" font-weight="600">Finalize event</text>
</svg>
