<svg xmlns="http://www.w3.org/2000/svg" viewBox="0 0 390 780" width="390" height="780" role="img" aria-label="Gather Trips — idea board">
  <defs>
    <linearGradient id="tbg" x1="0" x2="0" y1="0" y2="1">
      <stop offset="0" stop-color="#1a1c26"/>
      <stop offset="1" stop-color="#0f1118"/>
    </linearGradient>
  </defs>
  <rect width="390" height="780" rx="44" fill="url(#tbg)"/>
  <rect x="0" y="0" width="390" height="56" fill="#0a0a0f"/>
  <text x="20" y="35" fill="#fff" font-family="ui-sans-serif" font-size="14" font-weight="600">Lisbon, March 12–18</text>
  <text x="370" y="35" fill="#7c5cff" font-family="ui-sans-serif" font-size="12" text-anchor="end" font-weight="600">+ idea</text>
  <g font-family="ui-sans-serif">
    <rect x="20" y="80" width="60" height="28" rx="14" fill="#7c5cff"/><text x="50" y="98" text-anchor="middle" fill="#fff" font-size="11" font-weight="600">All</text>
    <rect x="88" y="80" width="80" height="28" rx="14" fill="#1a1c26" stroke="#262834"/><text x="128" y="98" text-anchor="middle" fill="#9ca3af" font-size="11">Restaurants</text>
    <rect x="176" y="80" width="70" height="28" rx="14" fill="#1a1c26" stroke="#262834"/><text x="211" y="98" text-anchor="middle" fill="#9ca3af" font-size="11">Activities</text>
    <rect x="254" y="80" width="50" height="28" rx="14" fill="#1a1c26" stroke="#262834"/><text x="279" y="98" text-anchor="middle" fill="#9ca3af" font-size="11">Stay</text>
  </g>
  <g font-family="ui-sans-serif">
    <rect x="20" y="130" width="165" height="200" rx="16" fill="#262834"/>
    <rect x="20" y="130" width="165" height="120" rx="16" fill="#ff7a59" opacity="0.3"/>
    <text x="35" y="270" fill="#fff" font-size="13" font-weight="600">Time Out Market</text>
    <text x="35" y="290" fill="#9ca3af" font-size="11">RESTAURANT</text>
    <text x="35" y="316" fill="#5eead4" font-size="11">📌 Day 2</text>
    <rect x="205" y="130" width="165" height="200" rx="16" fill="#262834"/>
    <rect x="205" y="130" width="165" height="120" rx="16" fill="#5eead4" opacity="0.25"/>
    <text x="220" y="270" fill="#fff" font-size="13" font-weight="600">Tram 28 ride</text>
    <text x="220" y="290" fill="#9ca3af" font-size="11">ACTIVITY</text>
    <text x="220" y="316" fill="#9ca3af" font-size="11">unscheduled</text>
    <rect x="20" y="346" width="165" height="200" rx="16" fill="#262834"/>
    <rect x="20" y="346" width="165" height="120" rx="16" fill="#7c5cff" opacity="0.3"/>
    <text x="35" y="486" fill="#fff" font-size="13" font-weight="600">Alfama walking tour</text>
    <text x="35" y="506" fill="#9ca3af" font-size="11">ACTIVITY</text>
    <text x="35" y="532" fill="#5eead4" font-size="11">📌 Day 3</text>
    <rect x="205" y="346" width="165" height="200" rx="16" fill="#262834"/>
    <rect x="205" y="346" width="165" height="120" rx="16" fill="#ff7a59" opacity="0.3"/>
    <text x="220" y="486" fill="#fff" font-size="13" font-weight="600">Pastéis de Belém</text>
    <text x="220" y="506" fill="#9ca3af" font-size="11">RESTAURANT</text>
    <text x="220" y="532" fill="#9ca3af" font-size="11">3 likes</text>
  </g>
  <rect x="20" y="600" width="350" height="64" rx="14" fill="#1a1c26" stroke="#7c5cff" stroke-opacity="0.3"/>
  <text x="40" y="625" fill="#7c5cff" font-family="ui-sans-serif" font-size="11" font-weight="600">💬 SYSTEM</text>
  <text x="40" y="648" fill="#e7e7ee" font-family="ui-sans-serif" font-size="12">📊 New poll: Where to stay?</text>
  <g font-family="ui-sans-serif">
    <rect x="20" y="700" width="350" height="56" rx="28" fill="#1a1c26"/>
    <text x="50" y="734" fill="#9ca3af" font-size="13">Drop a link, photo, or note…</text>
  </g>
</svg>
